# xmcd
#
# Track frame offsets:
#	150
#	12602
#	24537
#	35770
#	54876
#	66592
#	77360
#	85896
#	98221
#	110887
#	122711
#	133699
#	145298
#	157837
#	169561
#	178521
#	188876
#	198358
#	208705
#	221910
#
# Disc length: 3119 seconds
#
# Revision: 1
# Processed by: cddbd v1.5.2PL0 Copyright (c) Steve Scherf et al.
# Submitted via: audiograbber 1.83.01
#
DISCID=210c2d14
DTITLE=Various Artist - A Stack of Northern Soul [CD 1)
DYEAR=2014
DGENRE=Soul - Rhythm and Blues
TTITLE0=Wilbert Harrison - Let's Stick Together
TTITLE1=The Mar-Keys - Last Night
TTITLE2=The Exciters - Tell Him
TTITLE3=Phil Upchurch - You Can't Sit Down
TTITLE4=Solomon Burke - Cry To Me
TTITLE5=James Booker - Gonzo
TTITLE6=Chris Kenner - I Like It Like That
TTITLE7=Ernie K-Doe (Ernest Kador) - A Certain Girl
TTITLE8=Bo Diddley - Road Runner
TTITLE9=Gene Chandler - A Song Called Soul
TTITLE10=Betty Everett - I've Got A Claim On You
TTITLE11=Bobby 'Blue' Bland - Turn On Your Lovelight
TTITLE12=King Curtis - Soul Twist
TTITLE13=Little Eva - Keep Your Hands Off My Baby
TTITLE14=James Ray - If You Gotta Make A Fool Of Somebody
TTITLE15=Johnny Nash - Some Of Your Lovin'
TTITLE16=Marvin Gaye - Pride And Joy
TTITLE17=The Donays - Bad Boy
TTITLE18=Stevie Wonder - Fingertips
TTITLE19=Mel Torme - Comin' Home Baby
EXTD=
EXTT0=
EXTT1=
EXTT2=
EXTT3=
EXTT4=
EXTT5=
EXTT6=
EXTT7=
EXTT8=
EXTT9=
EXTT10=
EXTT11=
EXTT12=
EXTT13=
EXTT14=
EXTT15=
EXTT16=
EXTT17=
EXTT18=
EXTT19=
PLAYORDER=
